<svg width="26" height="24" viewBox="0 0 26 24" fill="none" xmlns="http://www.w3.org/2000/svg">
<path id="Vector" d="M24.0696 0.00239066C23.7486 0.0257464 23.4335 0.101059 23.1366 0.22539H23.1326C22.8476 0.33839 21.4926 0.90839 19.4326 1.77239L12.0506 4.88139C6.75363 7.11139 1.54663 9.30739 1.54663 9.30739L1.60863 9.28339C1.60863 9.28339 1.24963 9.40139 0.87463 9.65839C0.642958 9.80581 0.443604 9.9987 0.28863 10.2254C0.10463 10.4954 -0.0433696 10.9084 0.0116304 11.3354C0.10163 12.0574 0.56963 12.4904 0.90563 12.7294C1.24563 12.9714 1.56963 13.0844 1.56963 13.0844H1.57763L6.46063 14.7294C6.67963 15.4324 7.94863 19.6044 8.25363 20.5654C8.43363 21.1394 8.60863 21.4984 8.82763 21.7724C8.93363 21.9124 9.05763 22.0294 9.20663 22.1234C9.28409 22.1684 9.36668 22.204 9.45263 22.2294L9.40263 22.2174C9.41763 22.2214 9.42963 22.2334 9.44063 22.2374C9.48063 22.2484 9.50763 22.2524 9.55863 22.2604C10.3316 22.4944 10.9526 22.0144 10.9526 22.0144L10.9876 21.9864L13.8706 19.3614L18.7026 23.0684L18.8126 23.1154C19.8196 23.5574 20.8396 23.3114 21.3786 22.8774C21.9216 22.4404 22.1326 21.8814 22.1326 21.8814L22.1676 21.7914L25.9016 2.66239C26.0076 2.19039 26.0346 1.74839 25.9176 1.31939C25.797 0.885216 25.5184 0.511798 25.1366 0.27239C24.8161 0.0775055 24.4443 -0.0165608 24.0696 0.00239066ZM23.9686 2.05239C23.9646 2.11539 23.9766 2.10839 23.9486 2.22939V2.24039L20.2496 21.1704C20.2336 21.1974 20.2066 21.2564 20.1326 21.3154C20.0546 21.3774 19.9926 21.4164 19.6676 21.2874L13.7576 16.7564L10.1876 20.0104L10.9376 15.2204L20.5936 6.22039C20.9916 5.85039 20.8586 5.77239 20.8586 5.77239C20.8866 5.31839 20.2576 5.63939 20.2576 5.63939L8.08163 13.1824L8.07763 13.1624L2.24163 11.1974V11.1934L2.22663 11.1904C2.23686 11.187 2.24688 11.183 2.25663 11.1784L2.28863 11.1624L2.31963 11.1514C2.31963 11.1514 7.53063 8.95539 12.8276 6.72539C15.4796 5.60839 18.1516 4.48339 20.2066 3.61539C21.4254 3.10239 22.6454 2.59239 23.8666 2.08539C23.9486 2.05339 23.9096 2.05239 23.9686 2.05239Z" fill="black"/>
</svg>
