<svg xmlns="http://www.w3.org/2000/svg" width="24" height="24" viewBox="0 0 24 24" fill="none">
  <path d="M22 22L16.9376 16.9376M16.9376 16.9376C17.7501 16.1251 18.3947 15.1605 18.8344 14.0988C19.2742 13.0372 19.5005 11.8994 19.5005 10.7503C19.5005 9.60115 19.2742 8.4633 18.8344 7.40167C18.3947 6.34005 17.7501 5.37542 16.9376 4.56289C16.1251 3.75035 15.1605 3.10581 14.0988 2.66607C13.0372 2.22633 11.8994 2 10.7503 2C9.60115 2 8.4633 2.22633 7.40167 2.66607C6.34005 3.10581 5.37543 3.75035 4.56289 4.56289C2.9219 6.20388 2 8.42954 2 10.7503C2 13.071 2.9219 15.2966 4.56289 16.9376C6.20388 18.5786 8.42954 19.5005 10.7503 19.5005C13.071 19.5005 15.2966 18.5786 16.9376 16.9376Z" stroke="black" stroke-opacity="0.73" stroke-width="3" stroke-linecap="round" stroke-linejoin="round"/>
</svg>